{
  "asset": {
    "generator": "Khronos glTF Blender I/O v0.9.36",
    "version": "2.0"
  },
  "scene": 0,
  "scenes": [
    {
      "name": "Scene",
      "nodes": [11, 24]
    }
  ],
  "nodes": [
    {
      "name": "Node.002"
    },
    {
      "children": [0],
      "name": "Camera",
      "rotation": [
        -0.21255731582641602,
        -0.0843893364071846,
        -0.9047970175743103,
        0.3592217266559601
      ],
      "scale": [100, 99.99999237060547, 100.00000762939453],
      "translation": [748.1131591796875, 650.7639770507812, -534.3665161132812]
    },
    {
      "name": "Node.001"
    },
    {
      "children": [2],
      "name": "Node",
      "rotation": [0.7071068286895752, 0, 0, 0.7071068286895752]
    },
    {
      "children": [3],
      "name": "Lamp",
      "rotation": [
        0.16907572746276855,
        -0.2721713185310364,
        -0.7558804154396057,
        0.5709475874900818
      ],
      "scale": [100.00000762939453, 100, 100],
      "translation": [407.6245422363281, -100.54539489746094, -590.38623046875]
    },
    {
      "name": "Sphere",
      "rotation": [-0.7071068286895752, 0, 0, 0.7071068286895752],
      "scale": [100, 100, 100]
    },
    {
      "mesh": 0,
      "name": "Sphere.001_3DM.Glass(Real)_0"
    },
    {
      "children": [6],
      "name": "Sphere.001",
      "rotation": [-0.7071068286895752, 0, 0, 0.7071068286895752],
      "scale": [97.64044952392578, 97.64044952392578, 97.64044952392578]
    },
    {
      "children": [1, 4, 5, 7],
      "name": "RootNode"
    },
    {
      "children": [8],
      "name": "90bed0915d0a451092885cf9940ddc3a.fbx",
      "rotation": [0.7071068286895752, 0, 0, 0.7071068286895752]
    },
    {
      "children": [9],
      "name": "RootNode (model correction matrix)"
    },
    {
      "children": [10],
      "name": "RootNode (gltf orientation matrix)"
    },
    {
      "name": "Node.005"
    },
    {
      "children": [12],
      "name": "Camera.001",
      "rotation": [
        -0.21255731582641602,
        -0.0843893364071846,
        -0.9047970175743103,
        0.3592217266559601
      ],
      "scale": [100, 99.99999237060547, 100.00000762939453],
      "translation": [748.1131591796875, 650.7639770507812, -534.3665161132812]
    },
    {
      "name": "Node.004"
    },
    {
      "children": [14],
      "name": "Node.003",
      "rotation": [0.7071068286895752, 0, 0, 0.7071068286895752]
    },
    {
      "children": [15],
      "name": "Lamp.001",
      "rotation": [
        0.16907572746276855,
        -0.2721713185310364,
        -0.7558804154396057,
        0.5709475874900818
      ],
      "scale": [100.00000762939453, 100, 100],
      "translation": [407.6245422363281, -100.54539489746094, -590.38623046875]
    },
    {
      "mesh": 1,
      "name": "Sphere.001_3DM.Glass(Real)_0.001"
    },
    {
      "children": [17],
      "name": "Sphere.002",
      "rotation": [-0.7071068286895752, 0, 0, 0.7071068286895752],
      "scale": [97.64044952392578, 97.64044952392578, 97.64044952392578]
    },
    {
      "mesh": 2,
      "name": "Sphere_3DM.Gold_0"
    },
    {
      "children": [19],
      "name": "Sphere.003",
      "rotation": [-0.7071068286895752, 0, 0, 0.7071068286895752],
      "scale": [100, 100, 100]
    },
    {
      "children": [13, 16, 18, 20],
      "name": "RootNode.001"
    },
    {
      "children": [21],
      "name": "90bed0915d0a451092885cf9940ddc3a.fbx.001",
      "rotation": [0.7071068286895752, 0, 0, 0.7071068286895752]
    },
    {
      "children": [22],
      "name": "RootNode (model correction matrix).001"
    },
    {
      "children": [23],
      "name": "RootNode (gltf orientation matrix).001"
    }
  ],
  "materials": [
    {
      "alphaMode": "BLEND",
      "doubleSided": true,
      "name": "3DM.GlassReal",
      "pbrMetallicRoughness": {
        "baseColorFactor": [
          0.22088414430618286,
          0.22088414430618286,
          0.22088414430618286,
          0.47389480471611023
        ],
        "metallicFactor": 0.10537347197532654,
        "roughnessFactor": 1
      }
    },
    {
      "alphaMode": "BLEND",
      "doubleSided": true,
      "name": "3DM.GlassReal.001",
      "pbrMetallicRoughness": {
        "baseColorFactor": [
          0.22088414430618286,
          0.22088414430618286,
          0.22088414430618286,
          0.47389480471611023
        ],
        "metallicFactor": 0.10537347197532654,
        "roughnessFactor": 1
      }
    },
    {
      "doubleSided": true,
      "emissiveFactor": [0, 0, 0],
      "name": "3DM.Gold.002",
      "pbrMetallicRoughness": {
        "baseColorFactor": [1, 1, 1, 1],
        "metallicFactor": 1,
        "roughnessFactor": 1
      }
    }
  ],
  "meshes": [
    {
      "name": "Sphere.001_3DM.Glass(Real)_0",
      "primitives": [
        {
          "attributes": {
            "POSITION": 0,
            "NORMAL": 1
          },
          "indices": 2,
          "material": 0
        }
      ]
    },
    {
      "name": "Sphere.001_3DM.Glass(Real)_0.001",
      "primitives": [
        {
          "attributes": {
            "POSITION": 3,
            "NORMAL": 4
          },
          "indices": 2,
          "material": 1
        }
      ]
    },
    {
      "name": "Sphere_3DM.Gold_0.001",
      "primitives": [
        {
          "attributes": {
            "POSITION": 5,
            "NORMAL": 6
          },
          "indices": 7,
          "material": 2
        }
      ]
    }
  ],
  "accessors": [
    {
      "bufferView": 0,
      "componentType": 5126,
      "count": 1986,
      "max": [0.9904158711433411, 0.9989992380142212, 0.9904160499572754],
      "min": [-0.9904154539108276, -0.9989992380142212, -0.9904149770736694],
      "type": "VEC3"
    },
    {
      "bufferView": 1,
      "componentType": 5126,
      "count": 1986,
      "type": "VEC3"
    },
    {
      "bufferView": 2,
      "componentType": 5123,
      "count": 11904,
      "type": "SCALAR"
    },
    {
      "bufferView": 3,
      "componentType": 5126,
      "count": 1986,
      "max": [0.9904158711433411, 0.9989992380142212, 0.9904160499572754],
      "min": [-0.9904154539108276, -0.9989992380142212, -0.9904149770736694],
      "type": "VEC3"
    },
    {
      "bufferView": 4,
      "componentType": 5126,
      "count": 1986,
      "type": "VEC3"
    },
    {
      "bufferView": 5,
      "componentType": 5126,
      "count": 58668,
      "max": [1.0016411542892456, 1.0052273273468018, 1.0016412734985352],
      "min": [-1.001640796661377, -1.0052273273468018, -1.0016403198242188],
      "type": "VEC3"
    },
    {
      "bufferView": 6,
      "componentType": 5126,
      "count": 58668,
      "type": "VEC3"
    },
    {
      "bufferView": 7,
      "componentType": 5123,
      "count": 77760,
      "type": "SCALAR"
    }
  ],
  "bufferViews": [
    {
      "buffer": 0,
      "byteLength": 23832,
      "byteOffset": 0
    },
    {
      "buffer": 0,
      "byteLength": 23832,
      "byteOffset": 23832
    },
    {
      "buffer": 0,
      "byteLength": 23808,
      "byteOffset": 47664
    },
    {
      "buffer": 0,
      "byteLength": 23832,
      "byteOffset": 71472
    },
    {
      "buffer": 0,
      "byteLength": 23832,
      "byteOffset": 95304
    },
    {
      "buffer": 0,
      "byteLength": 704016,
      "byteOffset": 119136
    },
    {
      "buffer": 0,
      "byteLength": 704016,
      "byteOffset": 823152
    },
    {
      "buffer": 0,
      "byteLength": 155520,
      "byteOffset": 1527168
    }
  ],
  "buffers": [
    {
      "uri": "orb-1_data.bin",
      "byteLength": 1682688
    }
  ]
}
